<svg width="257" height="48" viewBox="0 0 257 48" fill="none" xmlns="http://www.w3.org/2000/svg">
<path d="M8.52751 37H0.202153L12.8876 0.253586H22.8995L35.567 37H27.2416L18.0371 8.65072H17.75L8.52751 37ZM8.00718 22.5562H27.6723V28.6208H8.00718V22.5562ZM39.8463 47.3349V9.44019H47.3822V14.0694H47.7231C48.058 13.3277 48.5425 12.5742 49.1764 11.8086C49.8224 11.0311 50.6597 10.3852 51.6884 9.87081C52.7291 9.3445 54.0209 9.08134 55.564 9.08134C57.5736 9.08134 59.4276 9.60765 61.1262 10.6603C62.8248 11.701 64.1824 13.2739 65.1992 15.3792C66.2159 17.4725 66.7243 20.0981 66.7243 23.256C66.7243 26.3301 66.2279 28.9258 65.2351 31.0431C64.2542 33.1483 62.9145 34.7452 61.2159 35.8337C59.5293 36.9103 57.6394 37.4486 55.5461 37.4486C54.0628 37.4486 52.8008 37.2033 51.7602 36.7129C50.7315 36.2225 49.8882 35.6065 49.2303 34.8648C48.5724 34.1112 48.07 33.3517 47.7231 32.5861H47.4898V47.3349H39.8463ZM47.3284 23.2201C47.3284 24.8589 47.5556 26.2883 48.0102 27.5084C48.4647 28.7285 49.1226 29.6794 49.9839 30.3612C50.8451 31.0311 51.8917 31.366 53.1238 31.366C54.3678 31.366 55.4205 31.0251 56.2817 30.3433C57.1429 29.6495 57.7949 28.6926 58.2374 27.4725C58.692 26.2404 58.9193 24.823 58.9193 23.2201C58.9193 21.6292 58.698 20.2297 58.2554 19.0215C57.8128 17.8134 57.1609 16.8684 56.2996 16.1866C55.4384 15.5048 54.3798 15.1639 53.1238 15.1639C51.8798 15.1639 50.8272 15.4928 49.9659 16.1507C49.1166 16.8086 48.4647 17.7416 48.0102 18.9498C47.5556 20.1579 47.3284 21.5813 47.3284 23.2201ZM84.2721 37.5383C81.4851 37.5383 79.0748 36.9462 77.0413 35.762C75.0197 34.5658 73.4587 32.9031 72.3583 30.7739C71.2578 28.6328 70.7075 26.1507 70.7075 23.3278C70.7075 20.4809 71.2578 17.9928 72.3583 15.8636C73.4587 13.7225 75.0197 12.0598 77.0413 10.8756C79.0748 9.67942 81.4851 9.08134 84.2721 9.08134C87.0592 9.08134 89.4635 9.67942 91.4851 10.8756C93.5185 12.0598 95.0855 13.7225 96.186 15.8636C97.2865 17.9928 97.8367 20.4809 97.8367 23.3278C97.8367 26.1507 97.2865 28.6328 96.186 30.7739C95.0855 32.9031 93.5185 34.5658 91.4851 35.762C89.4635 36.9462 87.0592 37.5383 84.2721 37.5383ZM84.308 31.6172C85.576 31.6172 86.6346 31.2584 87.4839 30.5407C88.3331 29.811 88.9731 28.8182 89.4037 27.5622C89.8463 26.3062 90.0676 24.8768 90.0676 23.2739C90.0676 21.6711 89.8463 20.2416 89.4037 18.9856C88.9731 17.7297 88.3331 16.7368 87.4839 16.0072C86.6346 15.2775 85.576 14.9127 84.308 14.9127C83.0281 14.9127 81.9516 15.2775 81.0784 16.0072C80.2171 16.7368 79.5652 17.7297 79.1226 18.9856C78.692 20.2416 78.4767 21.6711 78.4767 23.2739C78.4767 24.8768 78.692 26.3062 79.1226 27.5622C79.5652 28.8182 80.2171 29.811 81.0784 30.5407C81.9516 31.2584 83.0281 31.6172 84.308 31.6172ZM110.45 0.253586V37H102.807V0.253586H110.45ZM124.217 0.253586V37H116.573V0.253586H124.217ZM142.792 37.5383C140.005 37.5383 137.594 36.9462 135.561 35.762C133.539 34.5658 131.978 32.9031 130.878 30.7739C129.778 28.6328 129.227 26.1507 129.227 23.3278C129.227 20.4809 129.778 17.9928 130.878 15.8636C131.978 13.7225 133.539 12.0598 135.561 10.8756C137.594 9.67942 140.005 9.08134 142.792 9.08134C145.579 9.08134 147.983 9.67942 150.005 10.8756C152.038 12.0598 153.605 13.7225 154.706 15.8636C155.806 17.9928 156.356 20.4809 156.356 23.3278C156.356 26.1507 155.806 28.6328 154.706 30.7739C153.605 32.9031 152.038 34.5658 150.005 35.762C147.983 36.9462 145.579 37.5383 142.792 37.5383ZM142.828 31.6172C144.096 31.6172 145.154 31.2584 146.004 30.5407C146.853 29.811 147.493 28.8182 147.923 27.5622C148.366 26.3062 148.587 24.8768 148.587 23.2739C148.587 21.6711 148.366 20.2416 147.923 18.9856C147.493 17.7297 146.853 16.7368 146.004 16.0072C145.154 15.2775 144.096 14.9127 142.828 14.9127C141.548 14.9127 140.471 15.2775 139.598 16.0072C138.737 16.7368 138.085 17.7297 137.642 18.9856C137.212 20.2416 136.996 21.6711 136.996 23.2739C136.996 24.8768 137.212 26.3062 137.642 27.5622C138.085 28.8182 138.737 29.811 139.598 30.5407C140.471 31.2584 141.548 31.6172 142.828 31.6172Z" fill="url(#paint0_linear_17_519)"/>
<path d="M192.206 0.253586V37H185.495L169.508 13.872H169.239V37H161.47V0.253586H168.288L184.15 23.3636H184.472V0.253586H192.206ZM198.625 37V0.253586H222.955V6.65909H206.394V15.4151H221.34V21.8206H206.394V37H198.625ZM226.781 6.65909V0.253586H256.961V6.65909H245.711V37H238.031V6.65909H226.781Z" fill="#1C51FE"/>
<defs>
<linearGradient id="paint0_linear_17_519" x1="6.00001" y1="-53.5" x2="149" y2="71" gradientUnits="userSpaceOnUse">
<stop stop-color="#B235FF"/>
<stop offset="1" stop-color="#001447"/>
</linearGradient>
</defs>
</svg>
