<svg width="40" height="40" viewBox="0 0 40 40" fill="none" xmlns="http://www.w3.org/2000/svg">
<path opacity="0.4" d="M28.151 0H34.923C37.7275 0 40 2.2917 40 5.11993V11.949C40 14.7773 37.7275 17.069 34.923 17.069H28.151C25.3465 17.069 23.074 14.7773 23.074 11.949V5.11993C23.074 2.2917 25.3465 0 28.151 0Z" fill="url(#paint0_linear_9_334)"/>
<path d="M11.849 22.931C14.6535 22.931 16.926 25.2227 16.926 28.051V34.8801C16.926 37.7064 14.6535 40 11.849 40H5.07705C2.27251 40 0 37.7064 0 34.8801V28.051C0 25.2227 2.27251 22.931 5.07705 22.931H11.849ZM34.923 22.931C37.7275 22.931 40 25.2227 40 28.051V34.8801C40 37.7064 37.7275 40 34.923 40H28.151C25.3465 40 23.074 37.7064 23.074 34.8801V28.051C23.074 25.2227 25.3465 22.931 28.151 22.931H34.923ZM11.849 0C14.6535 0 16.926 2.2917 16.926 5.11993V11.949C16.926 14.7773 14.6535 17.069 11.849 17.069H5.07705C2.27251 17.069 0 14.7773 0 11.949V5.11993C0 2.2917 2.27251 0 5.07705 0H11.849Z" fill="url(#paint1_linear_9_334)"/>
<defs>
<linearGradient id="paint0_linear_9_334" x1="30.8026" y1="-1.64368" x2="46.3166" y2="4.76491" gradientUnits="userSpaceOnUse">
<stop stop-color="#8D1CFE"/>
<stop offset="1" stop-color="#0038ED"/>
</linearGradient>
<linearGradient id="paint1_linear_9_334" x1="18.2645" y1="-3.85185" x2="54.8372" y2="11.3833" gradientUnits="userSpaceOnUse">
<stop stop-color="#8D1CFE"/>
<stop offset="1" stop-color="#0038ED"/>
</linearGradient>
</defs>
</svg>
