<svg width="1200" height="290" viewBox="0 0 1200 290" fill="none" xmlns="http://www.w3.org/2000/svg">
<g clip-path="url(#clip0_17_394)">
<rect width="1200" height="290" rx="10" fill="url(#paint0_linear_17_394)"/>
<path d="M356.72 82.6364H364.32V107.991C364.32 110.335 363.793 112.371 362.739 114.099C361.698 115.828 360.248 117.159 358.389 118.094C356.531 119.03 354.371 119.497 351.908 119.497C349.719 119.497 347.73 119.112 345.942 118.343C344.167 117.562 342.758 116.378 341.717 114.792C340.675 113.194 340.16 111.187 340.172 108.773H347.825C347.848 109.732 348.044 110.554 348.411 111.241C348.789 111.915 349.304 112.436 349.955 112.803C350.618 113.158 351.399 113.336 352.299 113.336C353.246 113.336 354.045 113.135 354.696 112.732C355.359 112.318 355.862 111.714 356.205 110.921C356.549 110.128 356.72 109.152 356.72 107.991V82.6364ZM382.857 119.533C380.098 119.533 377.713 118.947 375.701 117.775C373.701 116.591 372.156 114.946 371.067 112.839C369.978 110.72 369.433 108.264 369.433 105.47C369.433 102.653 369.978 100.191 371.067 98.0838C372.156 95.965 373.701 94.3196 375.701 93.1477C377.713 91.964 380.098 91.3722 382.857 91.3722C385.615 91.3722 387.994 91.964 389.994 93.1477C392.007 94.3196 393.557 95.965 394.646 98.0838C395.735 100.191 396.28 102.653 396.28 105.47C396.28 108.264 395.735 110.72 394.646 112.839C393.557 114.946 392.007 116.591 389.994 117.775C387.994 118.947 385.615 119.533 382.857 119.533ZM382.892 113.673C384.147 113.673 385.194 113.318 386.035 112.608C386.875 111.886 387.509 110.903 387.935 109.661C388.373 108.418 388.592 107.003 388.592 105.417C388.592 103.831 388.373 102.416 387.935 101.173C387.509 99.9304 386.875 98.9479 386.035 98.2259C385.194 97.5038 384.147 97.1428 382.892 97.1428C381.625 97.1428 380.56 97.5038 379.696 98.2259C378.844 98.9479 378.199 99.9304 377.761 101.173C377.335 102.416 377.121 103.831 377.121 105.417C377.121 107.003 377.335 108.418 377.761 109.661C378.199 110.903 378.844 111.886 379.696 112.608C380.56 113.318 381.625 113.673 382.892 113.673ZM401.198 119V91.7273H408.762V119H401.198ZM404.998 88.2116C403.873 88.2116 402.909 87.8388 402.104 87.093C401.311 86.3355 400.914 85.4299 400.914 84.3764C400.914 83.3348 401.311 82.4411 402.104 81.6953C402.909 80.9377 403.873 80.5589 404.998 80.5589C406.122 80.5589 407.081 80.9377 407.874 81.6953C408.679 82.4411 409.082 83.3348 409.082 84.3764C409.082 85.4299 408.679 86.3355 407.874 87.093C407.081 87.8388 406.122 88.2116 404.998 88.2116ZM422.385 103.233V119H414.821V91.7273H422.03V96.5391H422.35C422.953 94.9529 423.965 93.6982 425.386 92.7749C426.806 91.8397 428.529 91.3722 430.553 91.3722C432.447 91.3722 434.098 91.7865 435.507 92.6151C436.915 93.4437 438.01 94.6274 438.791 96.1662C439.573 97.6932 439.963 99.5161 439.963 101.635V119H432.399V102.984C432.411 101.315 431.985 100.013 431.121 99.0781C430.257 98.1312 429.067 97.6577 427.552 97.6577C426.534 97.6577 425.634 97.8767 424.853 98.3146C424.084 98.7526 423.48 99.3918 423.042 100.232C422.616 101.061 422.397 102.061 422.385 103.233ZM460.431 91.7273V97.4091H444.007V91.7273H460.431ZM447.736 85.1932H455.3V110.619C455.3 111.318 455.406 111.862 455.619 112.253C455.832 112.632 456.128 112.898 456.507 113.052C456.898 113.206 457.348 113.283 457.857 113.283C458.212 113.283 458.567 113.253 458.922 113.194C459.277 113.123 459.549 113.07 459.739 113.034L460.928 118.663C460.549 118.781 460.017 118.917 459.33 119.071C458.644 119.237 457.809 119.337 456.827 119.373C455.004 119.444 453.406 119.201 452.033 118.645C450.671 118.089 449.612 117.224 448.854 116.053C448.097 114.881 447.724 113.401 447.736 111.614V85.1932ZM510.489 100.818C510.489 104.784 509.737 108.157 508.234 110.939C506.742 113.721 504.706 115.845 502.126 117.313C499.557 118.769 496.669 119.497 493.461 119.497C490.23 119.497 487.329 118.763 484.761 117.295C482.192 115.828 480.162 113.703 478.671 110.921C477.179 108.139 476.433 104.772 476.433 100.818C476.433 96.8527 477.179 93.4792 478.671 90.6974C480.162 87.9157 482.192 85.7969 484.761 84.3409C487.329 82.8731 490.23 82.1392 493.461 82.1392C496.669 82.1392 499.557 82.8731 502.126 84.3409C504.706 85.7969 506.742 87.9157 508.234 90.6974C509.737 93.4792 510.489 96.8527 510.489 100.818ZM502.694 100.818C502.694 98.2495 502.309 96.0833 501.54 94.3196C500.782 92.5559 499.711 91.2183 498.326 90.3068C496.941 89.3954 495.32 88.9396 493.461 88.9396C491.603 88.9396 489.981 89.3954 488.596 90.3068C487.211 91.2183 486.134 92.5559 485.365 94.3196C484.607 96.0833 484.228 98.2495 484.228 100.818C484.228 103.387 484.607 105.553 485.365 107.317C486.134 109.08 487.211 110.418 488.596 111.33C489.981 112.241 491.603 112.697 493.461 112.697C495.32 112.697 496.941 112.241 498.326 111.33C499.711 110.418 500.782 109.08 501.54 107.317C502.309 105.553 502.694 103.387 502.694 100.818ZM533.531 107.388V91.7273H541.095V119H533.833V114.046H533.549C532.933 115.644 531.91 116.929 530.477 117.899C529.057 118.87 527.323 119.355 525.275 119.355C523.452 119.355 521.848 118.941 520.463 118.112C519.078 117.284 517.995 116.106 517.214 114.579C516.444 113.052 516.054 111.223 516.042 109.092V91.7273H523.606V107.743C523.618 109.353 524.05 110.625 524.902 111.56C525.754 112.496 526.897 112.963 528.329 112.963C529.24 112.963 530.093 112.756 530.886 112.342C531.679 111.915 532.318 111.288 532.803 110.46C533.3 109.631 533.543 108.607 533.531 107.388ZM547.145 119V91.7273H554.479V96.4858H554.763C555.26 94.7931 556.094 93.5147 557.266 92.6506C558.438 91.7746 559.787 91.3366 561.314 91.3366C561.693 91.3366 562.102 91.3603 562.54 91.4077C562.978 91.455 563.362 91.5201 563.694 91.603V98.3146C563.339 98.2081 562.847 98.1134 562.22 98.0305C561.593 97.9477 561.019 97.9062 560.498 97.9062C559.385 97.9062 558.391 98.1489 557.515 98.6342C556.651 99.1077 555.964 99.7706 555.455 100.623C554.958 101.475 554.709 102.458 554.709 103.57V119H547.145ZM611.403 95.3672H603.626C603.484 94.361 603.194 93.4673 602.756 92.6861C602.318 91.893 601.756 91.2183 601.069 90.6619C600.383 90.1056 599.59 89.6794 598.69 89.3835C597.802 89.0876 596.838 88.9396 595.796 88.9396C593.914 88.9396 592.274 89.4072 590.878 90.3423C589.481 91.2656 588.398 92.6151 587.628 94.3906C586.859 96.1544 586.474 98.2969 586.474 100.818C586.474 103.411 586.859 105.589 587.628 107.352C588.41 109.116 589.499 110.448 590.895 111.347C592.292 112.247 593.908 112.697 595.743 112.697C596.773 112.697 597.725 112.561 598.601 112.288C599.489 112.016 600.276 111.62 600.963 111.099C601.649 110.566 602.218 109.921 602.667 109.163C603.129 108.406 603.449 107.542 603.626 106.571L611.403 106.607C611.202 108.276 610.699 109.885 609.894 111.436C609.101 112.975 608.03 114.354 606.68 115.573C605.343 116.781 603.745 117.739 601.886 118.45C600.04 119.148 597.95 119.497 595.618 119.497C592.375 119.497 589.475 118.763 586.918 117.295C584.373 115.828 582.361 113.703 580.881 110.921C579.413 108.139 578.68 104.772 578.68 100.818C578.68 96.8527 579.425 93.4792 580.917 90.6974C582.408 87.9157 584.432 85.7969 586.989 84.3409C589.546 82.8731 592.422 82.1392 595.618 82.1392C597.725 82.1392 599.679 82.4351 601.478 83.027C603.289 83.6188 604.893 84.483 606.29 85.6193C607.686 86.7438 608.823 88.1229 609.699 89.7564C610.586 91.3899 611.155 93.2602 611.403 95.3672ZM629.097 119.533C626.339 119.533 623.954 118.947 621.941 117.775C619.941 116.591 618.396 114.946 617.307 112.839C616.218 110.72 615.673 108.264 615.673 105.47C615.673 102.653 616.218 100.191 617.307 98.0838C618.396 95.965 619.941 94.3196 621.941 93.1477C623.954 91.964 626.339 91.3722 629.097 91.3722C631.855 91.3722 634.234 91.964 636.235 93.1477C638.247 94.3196 639.798 95.965 640.887 98.0838C641.976 100.191 642.52 102.653 642.52 105.47C642.52 108.264 641.976 110.72 640.887 112.839C639.798 114.946 638.247 116.591 636.235 117.775C634.234 118.947 631.855 119.533 629.097 119.533ZM629.132 113.673C630.387 113.673 631.435 113.318 632.275 112.608C633.115 111.886 633.749 110.903 634.175 109.661C634.613 108.418 634.832 107.003 634.832 105.417C634.832 103.831 634.613 102.416 634.175 101.173C633.749 99.9304 633.115 98.9479 632.275 98.2259C631.435 97.5038 630.387 97.1428 629.132 97.1428C627.866 97.1428 626.8 97.5038 625.936 98.2259C625.084 98.9479 624.439 99.9304 624.001 101.173C623.575 102.416 623.362 103.831 623.362 105.417C623.362 107.003 623.575 108.418 624.001 109.661C624.439 110.903 625.084 111.886 625.936 112.608C626.8 113.318 627.866 113.673 629.132 113.673ZM647.438 119V91.7273H654.647V96.5391H654.967C655.535 94.9411 656.482 93.6804 657.808 92.7571C659.133 91.8338 660.72 91.3722 662.566 91.3722C664.436 91.3722 666.029 91.8397 667.343 92.7749C668.656 93.6982 669.532 94.9529 669.97 96.5391H670.254C670.811 94.9766 671.817 93.7277 673.273 92.7926C674.741 91.8456 676.475 91.3722 678.475 91.3722C681.02 91.3722 683.086 92.183 684.672 93.8047C686.27 95.4145 687.069 97.6991 687.069 100.658V119H679.523V102.15C679.523 100.635 679.12 99.4983 678.316 98.7408C677.511 97.9832 676.504 97.6044 675.297 97.6044C673.924 97.6044 672.853 98.0424 672.083 98.9183C671.314 99.7824 670.929 100.925 670.929 102.345V119H663.596V101.99C663.596 100.652 663.211 99.5871 662.442 98.794C661.684 98.0009 660.684 97.6044 659.441 97.6044C658.601 97.6044 657.843 97.8175 657.169 98.2436C656.506 98.6579 655.979 99.2438 655.588 100.001C655.198 100.747 655.002 101.623 655.002 102.629V119H647.438ZM693.044 119V91.7273H700.253V96.5391H700.572C701.14 94.9411 702.087 93.6804 703.413 92.7571C704.739 91.8338 706.325 91.3722 708.172 91.3722C710.042 91.3722 711.634 91.8397 712.948 92.7749C714.262 93.6982 715.138 94.9529 715.576 96.5391H715.86C716.416 94.9766 717.422 93.7277 718.878 92.7926C720.346 91.8456 722.08 91.3722 724.081 91.3722C726.626 91.3722 728.691 92.183 730.278 93.8047C731.876 95.4145 732.675 97.6991 732.675 100.658V119H725.128V102.15C725.128 100.635 724.726 99.4983 723.921 98.7408C723.116 97.9832 722.11 97.6044 720.903 97.6044C719.529 97.6044 718.458 98.0424 717.689 98.9183C716.919 99.7824 716.535 100.925 716.535 102.345V119H709.202V101.99C709.202 100.652 708.817 99.5871 708.047 98.794C707.29 98.0009 706.29 97.6044 705.047 97.6044C704.206 97.6044 703.449 97.8175 702.774 98.2436C702.111 98.6579 701.584 99.2438 701.194 100.001C700.803 100.747 700.608 101.623 700.608 102.629V119H693.044ZM756.139 107.388V91.7273H763.703V119H756.441V114.046H756.156C755.541 115.644 754.517 116.929 753.085 117.899C751.664 118.87 749.93 119.355 747.882 119.355C746.059 119.355 744.455 118.941 743.07 118.112C741.686 117.284 740.602 116.106 739.821 114.579C739.052 113.052 738.661 111.223 738.649 109.092V91.7273H746.213V107.743C746.225 109.353 746.657 110.625 747.509 111.56C748.362 112.496 749.504 112.963 750.936 112.963C751.848 112.963 752.7 112.756 753.493 112.342C754.286 111.915 754.925 111.288 755.411 110.46C755.908 109.631 756.151 108.607 756.139 107.388ZM777.317 103.233V119H769.753V91.7273H776.962V96.5391H777.281C777.885 94.9529 778.897 93.6982 780.317 92.7749C781.738 91.8397 783.46 91.3722 785.484 91.3722C787.378 91.3722 789.03 91.7865 790.438 92.6151C791.847 93.4437 792.942 94.6274 793.723 96.1662C794.504 97.6932 794.895 99.5161 794.895 101.635V119H787.331V102.984C787.343 101.315 786.917 100.013 786.053 99.0781C785.188 98.1312 783.999 97.6577 782.484 97.6577C781.466 97.6577 780.566 97.8767 779.785 98.3146C779.015 98.7526 778.412 99.3918 777.974 100.232C777.548 101.061 777.329 102.061 777.317 103.233ZM800.856 119V91.7273H808.42V119H800.856ZM804.656 88.2116C803.532 88.2116 802.567 87.8388 801.762 87.093C800.969 86.3355 800.572 85.4299 800.572 84.3764C800.572 83.3348 800.969 82.4411 801.762 81.6953C802.567 80.9377 803.532 80.5589 804.656 80.5589C805.781 80.5589 806.739 80.9377 807.532 81.6953C808.337 82.4411 808.74 83.3348 808.74 84.3764C808.74 85.4299 808.337 86.3355 807.532 87.093C806.739 87.8388 805.781 88.2116 804.656 88.2116ZM828.986 91.7273V97.4091H812.562V91.7273H828.986ZM816.29 85.1932H823.854V110.619C823.854 111.318 823.961 111.862 824.174 112.253C824.387 112.632 824.683 112.898 825.062 113.052C825.452 113.206 825.902 113.283 826.411 113.283C826.766 113.283 827.121 113.253 827.477 113.194C827.832 113.123 828.104 113.07 828.293 113.034L829.483 118.663C829.104 118.781 828.571 118.917 827.885 119.071C827.198 119.237 826.364 119.337 825.381 119.373C823.558 119.444 821.96 119.201 820.587 118.645C819.226 118.089 818.167 117.224 817.409 116.053C816.652 114.881 816.279 113.401 816.29 111.614V85.1932ZM838.583 129.227C837.624 129.227 836.724 129.15 835.884 128.996C835.055 128.854 834.369 128.671 833.824 128.446L835.529 122.8C836.417 123.072 837.216 123.22 837.926 123.244C838.648 123.267 839.269 123.102 839.79 122.746C840.323 122.391 840.755 121.788 841.086 120.935L841.53 119.781L831.747 91.7273H839.701L845.348 111.756H845.632L851.331 91.7273H859.339L848.739 121.947C848.23 123.415 847.538 124.694 846.662 125.783C845.797 126.884 844.703 127.73 843.377 128.322C842.051 128.925 840.453 129.227 838.583 129.227Z" fill="white"/>
<rect x="522" y="168" width="153" height="51" rx="25.5" fill="white"/>
<path d="M563.364 191C563.239 190.617 563.074 190.275 562.869 189.972C562.669 189.665 562.428 189.403 562.148 189.188C561.871 188.972 561.557 188.807 561.205 188.693C560.852 188.58 560.466 188.523 560.045 188.523C559.356 188.523 558.729 188.701 558.165 189.057C557.6 189.413 557.152 189.938 556.818 190.631C556.485 191.324 556.318 192.174 556.318 193.182C556.318 194.189 556.487 195.04 556.824 195.733C557.161 196.426 557.617 196.951 558.193 197.307C558.769 197.663 559.417 197.841 560.136 197.841C560.803 197.841 561.39 197.699 561.898 197.415C562.409 197.127 562.807 196.722 563.091 196.199C563.379 195.672 563.523 195.053 563.523 194.341L563.955 194.432H560.455V193.182H564.886V194.432C564.886 195.39 564.682 196.223 564.273 196.932C563.867 197.64 563.307 198.189 562.591 198.58C561.879 198.966 561.061 199.159 560.136 199.159C559.106 199.159 558.201 198.917 557.42 198.432C556.644 197.947 556.038 197.258 555.602 196.364C555.17 195.47 554.955 194.409 554.955 193.182C554.955 192.261 555.078 191.434 555.324 190.699C555.574 189.96 555.926 189.331 556.381 188.812C556.835 188.294 557.373 187.896 557.994 187.619C558.616 187.343 559.299 187.205 560.045 187.205C560.659 187.205 561.231 187.297 561.761 187.483C562.295 187.665 562.771 187.924 563.188 188.261C563.608 188.595 563.958 188.994 564.239 189.46C564.519 189.922 564.712 190.436 564.818 191H563.364ZM570.777 199.182C569.936 199.182 569.211 198.996 568.601 198.625C567.995 198.25 567.527 197.727 567.197 197.057C566.872 196.383 566.709 195.598 566.709 194.705C566.709 193.811 566.872 193.023 567.197 192.341C567.527 191.655 567.985 191.121 568.572 190.739C569.163 190.352 569.853 190.159 570.641 190.159C571.095 190.159 571.544 190.235 571.987 190.386C572.43 190.538 572.834 190.784 573.197 191.125C573.561 191.462 573.851 191.909 574.067 192.466C574.283 193.023 574.391 193.708 574.391 194.523V195.091H567.663V193.932H573.027C573.027 193.439 572.929 193 572.732 192.614C572.538 192.227 572.262 191.922 571.902 191.699C571.546 191.475 571.125 191.364 570.641 191.364C570.107 191.364 569.644 191.496 569.254 191.761C568.868 192.023 568.571 192.364 568.362 192.784C568.154 193.205 568.05 193.655 568.05 194.136V194.909C568.05 195.568 568.163 196.127 568.391 196.585C568.622 197.04 568.942 197.386 569.351 197.625C569.76 197.86 570.235 197.977 570.777 197.977C571.129 197.977 571.447 197.928 571.732 197.83C572.019 197.727 572.268 197.576 572.476 197.375C572.684 197.17 572.845 196.917 572.959 196.614L574.254 196.977C574.118 197.417 573.889 197.803 573.567 198.136C573.245 198.466 572.847 198.723 572.374 198.909C571.9 199.091 571.368 199.182 570.777 199.182ZM580.226 190.273V191.409H575.703V190.273H580.226ZM577.021 188.182H578.362V196.5C578.362 196.879 578.417 197.163 578.527 197.352C578.641 197.538 578.785 197.663 578.959 197.727C579.137 197.788 579.324 197.818 579.521 197.818C579.669 197.818 579.79 197.811 579.885 197.795C579.98 197.777 580.055 197.761 580.112 197.75L580.385 198.955C580.294 198.989 580.167 199.023 580.004 199.057C579.841 199.095 579.635 199.114 579.385 199.114C579.006 199.114 578.635 199.032 578.271 198.869C577.911 198.706 577.612 198.458 577.374 198.125C577.139 197.792 577.021 197.371 577.021 196.864V188.182ZM593.288 190.273C593.22 189.697 592.944 189.25 592.459 188.932C591.974 188.614 591.379 188.455 590.675 188.455C590.16 188.455 589.709 188.538 589.322 188.705C588.94 188.871 588.641 189.1 588.425 189.392C588.213 189.684 588.107 190.015 588.107 190.386C588.107 190.697 588.18 190.964 588.328 191.188C588.48 191.407 588.673 191.591 588.908 191.739C589.143 191.883 589.389 192.002 589.646 192.097C589.904 192.187 590.141 192.261 590.357 192.318L591.538 192.636C591.841 192.716 592.179 192.826 592.55 192.966C592.925 193.106 593.283 193.297 593.624 193.54C593.968 193.778 594.252 194.085 594.476 194.46C594.699 194.835 594.811 195.295 594.811 195.841C594.811 196.47 594.646 197.038 594.317 197.545C593.991 198.053 593.514 198.456 592.885 198.756C592.26 199.055 591.5 199.205 590.607 199.205C589.773 199.205 589.052 199.07 588.442 198.801C587.836 198.532 587.358 198.157 587.01 197.676C586.665 197.195 586.47 196.636 586.425 196H587.879C587.917 196.439 588.065 196.803 588.322 197.091C588.584 197.375 588.913 197.587 589.311 197.727C589.713 197.864 590.144 197.932 590.607 197.932C591.144 197.932 591.627 197.845 592.055 197.67C592.483 197.492 592.822 197.246 593.072 196.932C593.322 196.614 593.447 196.242 593.447 195.818C593.447 195.432 593.339 195.117 593.124 194.875C592.908 194.633 592.624 194.436 592.271 194.284C591.919 194.133 591.538 194 591.129 193.886L589.697 193.477C588.788 193.216 588.069 192.843 587.538 192.358C587.008 191.873 586.743 191.239 586.743 190.455C586.743 189.803 586.919 189.235 587.271 188.75C587.627 188.261 588.105 187.883 588.703 187.614C589.305 187.341 589.978 187.205 590.72 187.205C591.47 187.205 592.137 187.339 592.72 187.608C593.304 187.873 593.766 188.237 594.107 188.699C594.451 189.161 594.633 189.686 594.652 190.273H593.288ZM600.741 190.273V191.409H596.219V190.273H600.741ZM597.537 188.182H598.878V196.5C598.878 196.879 598.933 197.163 599.043 197.352C599.156 197.538 599.3 197.663 599.474 197.727C599.652 197.788 599.84 197.818 600.037 197.818C600.185 197.818 600.306 197.811 600.401 197.795C600.495 197.777 600.571 197.761 600.628 197.75L600.901 198.955C600.81 198.989 600.683 199.023 600.52 199.057C600.357 199.095 600.151 199.114 599.901 199.114C599.522 199.114 599.151 199.032 598.787 198.869C598.427 198.706 598.128 198.458 597.889 198.125C597.654 197.792 597.537 197.371 597.537 196.864V188.182ZM605.327 199.205C604.774 199.205 604.272 199.1 603.821 198.892C603.37 198.68 603.012 198.375 602.747 197.977C602.482 197.576 602.349 197.091 602.349 196.523C602.349 196.023 602.448 195.617 602.645 195.307C602.842 194.992 603.105 194.746 603.435 194.568C603.764 194.39 604.128 194.258 604.526 194.17C604.927 194.08 605.33 194.008 605.736 193.955C606.266 193.886 606.696 193.835 607.026 193.801C607.359 193.763 607.601 193.701 607.753 193.614C607.908 193.527 607.986 193.375 607.986 193.159V193.114C607.986 192.553 607.832 192.117 607.526 191.807C607.223 191.496 606.762 191.341 606.145 191.341C605.505 191.341 605.003 191.481 604.639 191.761C604.276 192.042 604.02 192.341 603.872 192.659L602.599 192.205C602.827 191.674 603.13 191.261 603.509 190.966C603.891 190.667 604.308 190.458 604.759 190.341C605.213 190.22 605.66 190.159 606.099 190.159C606.38 190.159 606.702 190.193 607.065 190.261C607.433 190.326 607.787 190.46 608.128 190.665C608.473 190.869 608.759 191.178 608.986 191.591C609.213 192.004 609.327 192.557 609.327 193.25V199H607.986V197.818H607.918C607.827 198.008 607.675 198.21 607.463 198.426C607.251 198.642 606.969 198.826 606.616 198.977C606.264 199.129 605.834 199.205 605.327 199.205ZM605.531 198C606.062 198 606.509 197.896 606.872 197.688C607.24 197.479 607.516 197.21 607.702 196.881C607.891 196.551 607.986 196.205 607.986 195.841V194.614C607.929 194.682 607.804 194.744 607.611 194.801C607.421 194.854 607.202 194.902 606.952 194.943C606.705 194.981 606.465 195.015 606.23 195.045C605.999 195.072 605.812 195.095 605.668 195.114C605.319 195.159 604.993 195.233 604.69 195.335C604.391 195.434 604.149 195.583 603.963 195.784C603.781 195.981 603.69 196.25 603.69 196.591C603.69 197.057 603.863 197.409 604.207 197.648C604.556 197.883 604.997 198 605.531 198ZM611.774 199V190.273H613.07V191.591H613.161C613.32 191.159 613.607 190.809 614.024 190.54C614.441 190.271 614.911 190.136 615.433 190.136C615.532 190.136 615.655 190.138 615.803 190.142C615.95 190.146 616.062 190.152 616.138 190.159V191.523C616.092 191.511 615.988 191.494 615.825 191.472C615.666 191.445 615.498 191.432 615.32 191.432C614.895 191.432 614.517 191.521 614.183 191.699C613.854 191.873 613.592 192.116 613.399 192.426C613.21 192.733 613.115 193.083 613.115 193.477V199H611.774ZM622.07 190.273V191.409H617.547V190.273H622.07ZM618.865 188.182H620.206V196.5C620.206 196.879 620.261 197.163 620.371 197.352C620.484 197.538 620.628 197.663 620.803 197.727C620.981 197.788 621.168 197.818 621.365 197.818C621.513 197.818 621.634 197.811 621.729 197.795C621.823 197.777 621.899 197.761 621.956 197.75L622.229 198.955C622.138 198.989 622.011 199.023 621.848 199.057C621.685 199.095 621.479 199.114 621.229 199.114C620.85 199.114 620.479 199.032 620.115 198.869C619.755 198.706 619.456 198.458 619.217 198.125C618.982 197.792 618.865 197.371 618.865 196.864V188.182ZM627.652 199.182C626.811 199.182 626.086 198.996 625.476 198.625C624.87 198.25 624.402 197.727 624.072 197.057C623.747 196.383 623.584 195.598 623.584 194.705C623.584 193.811 623.747 193.023 624.072 192.341C624.402 191.655 624.86 191.121 625.447 190.739C626.038 190.352 626.728 190.159 627.516 190.159C627.97 190.159 628.419 190.235 628.862 190.386C629.305 190.538 629.709 190.784 630.072 191.125C630.436 191.462 630.726 191.909 630.942 192.466C631.158 193.023 631.266 193.708 631.266 194.523V195.091H624.538V193.932H629.902C629.902 193.439 629.804 193 629.607 192.614C629.413 192.227 629.137 191.922 628.777 191.699C628.421 191.475 628 191.364 627.516 191.364C626.982 191.364 626.519 191.496 626.129 191.761C625.743 192.023 625.446 192.364 625.237 192.784C625.029 193.205 624.925 193.655 624.925 194.136V194.909C624.925 195.568 625.038 196.127 625.266 196.585C625.497 197.04 625.817 197.386 626.226 197.625C626.635 197.86 627.11 197.977 627.652 197.977C628.004 197.977 628.322 197.928 628.607 197.83C628.894 197.727 629.143 197.576 629.351 197.375C629.559 197.17 629.72 196.917 629.834 196.614L631.129 196.977C630.993 197.417 630.764 197.803 630.442 198.136C630.12 198.466 629.722 198.723 629.249 198.909C628.775 199.091 628.243 199.182 627.652 199.182ZM636.601 199.182C635.874 199.182 635.232 198.998 634.675 198.631C634.118 198.259 633.682 197.737 633.368 197.062C633.054 196.384 632.896 195.583 632.896 194.659C632.896 193.742 633.054 192.947 633.368 192.273C633.682 191.598 634.12 191.078 634.68 190.71C635.241 190.343 635.889 190.159 636.624 190.159C637.192 190.159 637.641 190.254 637.97 190.443C638.304 190.629 638.557 190.841 638.732 191.08C638.91 191.314 639.048 191.508 639.146 191.659H639.26V187.364H640.601V199H639.305V197.659H639.146C639.048 197.818 638.908 198.019 638.726 198.261C638.544 198.5 638.285 198.714 637.947 198.903C637.61 199.089 637.161 199.182 636.601 199.182ZM636.783 197.977C637.321 197.977 637.775 197.837 638.146 197.557C638.518 197.273 638.8 196.881 638.993 196.381C639.186 195.877 639.283 195.295 639.283 194.636C639.283 193.985 639.188 193.415 638.999 192.926C638.809 192.434 638.529 192.051 638.158 191.778C637.786 191.502 637.328 191.364 636.783 191.364C636.214 191.364 635.741 191.509 635.362 191.801C634.987 192.089 634.705 192.481 634.516 192.977C634.33 193.47 634.237 194.023 634.237 194.636C634.237 195.258 634.332 195.822 634.521 196.33C634.714 196.833 634.999 197.235 635.374 197.534C635.752 197.83 636.222 197.977 636.783 197.977Z" fill="#1C51FE"/>
<circle cx="1120" cy="237" r="271" fill="#8114D5"/>
<circle cx="600" cy="415" r="270.5" stroke="white"/>
<circle cx="34.5" cy="79.5" r="113.5" fill="#650076" fill-opacity="0.3"/>
<g opacity="0.3" filter="url(#filter0_f_17_394)">
<path d="M964.282 -22.5242C965.798 -24.0399 968.007 -24.6319 970.077 -24.0771L1054.18 -1.54125C1056.25 -0.98645 1057.87 0.630834 1058.42 2.70139L1080.96 86.8063C1081.52 88.8768 1080.92 91.0861 1079.41 92.6018L1017.84 154.171C1016.32 155.687 1014.11 156.279 1012.04 155.724L927.938 133.188C925.868 132.633 924.25 131.016 923.696 128.945L901.16 44.8404C900.605 42.7699 901.197 40.5606 902.713 39.0449L964.282 -22.5242Z" fill="#6B3D0F"/>
</g>
<g opacity="0.4" filter="url(#filter1_f_17_394)">
<path d="M965.576 -17.6946C967.092 -19.2104 969.301 -19.8023 971.371 -19.2475L1056.44 3.54713C1058.51 4.10194 1060.13 5.71922 1060.68 7.78977L1083.48 92.8606C1084.03 94.9311 1083.44 97.1404 1081.93 98.6562L1019.65 160.932C1018.13 162.448 1015.93 163.04 1013.85 162.485L928.784 139.691C926.714 139.136 925.096 137.518 924.541 135.448L901.747 50.3771C901.192 48.3066 901.784 46.0973 903.3 44.5816L965.576 -17.6946Z" fill="#6B3D0F"/>
</g>
<path d="M962.211 -30.2518C963.727 -31.7676 965.936 -32.3595 968.007 -31.8047L1055.98 -8.23361C1058.05 -7.6788 1059.66 -6.06152 1060.22 -3.99097L1083.79 83.9776C1084.34 86.0482 1083.75 88.2574 1082.24 89.7732L1017.84 154.171C1016.32 155.686 1014.11 156.278 1012.04 155.724L924.075 132.152C922.004 131.598 920.387 129.98 919.832 127.91L896.261 39.9412C895.706 37.8707 896.298 35.6614 897.814 34.1457L962.211 -30.2518Z" fill="url(#paint1_linear_17_394)"/>
<g clip-path="url(#clip1_17_394)">
<path d="M1018.87 44.7907C1017.77 35.1046 1009.34 31.9983 998.747 31.2567L998.512 17.7987L990.32 17.9429L990.55 31.0463C988.396 31.0837 986.196 31.1648 984.009 31.2466L983.78 18.0562L975.593 18.199L975.825 31.6533C974.052 31.7206 972.311 31.7844 970.613 31.8148L970.611 31.7727L959.313 31.9658L959.468 40.7151C959.468 40.7151 965.515 40.4945 965.416 40.607C968.734 40.5499 969.848 42.4578 970.192 44.1144L970.46 59.4461C970.689 59.4431 970.987 59.4474 971.327 59.4884C971.054 59.4934 970.762 59.497 970.461 59.5051L970.834 80.9833C970.707 82.0299 970.122 83.7062 967.804 83.7504C967.911 83.8413 961.849 83.853 961.849 83.853L960.392 93.6649L971.053 93.4784C973.037 93.4465 974.99 93.4461 976.907 93.4241L977.148 107.035L985.331 106.894L985.095 93.426C987.343 93.4334 989.517 93.4132 991.641 93.3744L991.871 106.78L1000.06 106.635L999.828 93.0481C1013.59 92.0176 1023.17 88.3802 1024.14 75.4255C1024.92 64.9947 1019.94 60.4338 1012.09 58.6929C1016.8 56.1912 1019.69 51.878 1018.87 44.7907ZM1007.92 74.095C1008.1 84.2669 990.664 83.4141 985.112 83.5162L984.799 65.4817C990.352 65.3865 1007.73 63.4854 1007.92 74.095ZM1003.66 48.7174C1003.82 57.9715 989.279 57.1454 984.655 57.2263L984.37 40.8704C988.994 40.7895 1003.49 39.0658 1003.66 48.7174Z" fill="white"/>
</g>
<g opacity="0.3" filter="url(#filter2_f_17_394)">
<path d="M1107 114.732C1108.86 113.66 1111.14 113.66 1113 114.732L1170.22 147.768C1172.08 148.84 1173.22 150.821 1173.22 152.964V219.036C1173.22 221.18 1172.08 223.16 1170.22 224.232L1113 257.268C1111.14 258.34 1108.86 258.34 1107 257.268L1049.78 224.232C1047.92 223.16 1046.78 221.18 1046.78 219.036V152.964C1046.78 150.821 1047.92 148.84 1049.78 147.768L1107 114.732Z" fill="#6B3D0F"/>
</g>
<g opacity="0.4" filter="url(#filter3_f_17_394)">
<path d="M1107 119.732C1108.86 118.66 1111.14 118.66 1113 119.732L1171.09 153.268C1172.94 154.34 1174.09 156.321 1174.09 158.464V225.536C1174.09 227.68 1172.94 229.66 1171.09 230.732L1113 264.268C1111.14 265.34 1108.86 265.34 1107 264.268L1048.91 230.732C1047.06 229.66 1045.91 227.68 1045.91 225.536V158.464C1045.91 156.321 1047.06 154.34 1048.91 153.268L1107 119.732Z" fill="#6B3D0F"/>
</g>
<path d="M1107 106.732C1108.86 105.66 1111.14 105.66 1113 106.732L1173.68 141.768C1175.54 142.84 1176.68 144.821 1176.68 146.964V217.036C1176.68 219.18 1175.54 221.16 1173.68 222.232L1113 257.268C1111.14 258.34 1108.86 258.34 1107 257.268L1046.32 222.232C1044.46 221.16 1043.32 219.18 1043.32 217.036V146.964C1043.32 144.821 1044.46 142.84 1046.32 141.768L1107 106.732Z" fill="url(#paint2_linear_17_394)"/>
<path d="M1110 162.221L1095.98 176.24L1087.82 168.082L1110 145.906L1132.18 168.089L1124.03 176.246L1110 162.221Z" fill="white"/>
<path d="M1082.06 173.841L1073.91 182L1082.06 190.156L1090.22 181.998L1082.06 173.841Z" fill="white"/>
<path d="M1110 201.779L1095.98 187.761L1087.81 195.906L1110 218.094L1132.18 195.911L1132.19 195.907L1124.03 187.754L1110 201.779Z" fill="white"/>
<path d="M1137.94 173.846L1129.78 182.003L1137.94 190.16L1146.09 182.003L1137.94 173.846Z" fill="white"/>
<path d="M1118.28 181.994H1118.27L1118.28 181.998L1118.28 182.002L1110 190.279L1101.73 182.008L1101.72 181.996L1101.73 181.985L1110 173.716L1118.28 181.994Z" fill="white"/>
<g opacity="0.3" filter="url(#filter4_f_17_394)">
<path d="M962.689 166.047C964.759 165.493 966.968 166.085 968.484 167.6L994.698 193.814C996.214 195.33 996.806 197.539 996.251 199.61L986.656 235.418C986.101 237.489 984.484 239.106 982.413 239.661L946.605 249.256C944.534 249.811 942.325 249.219 940.809 247.703L914.595 221.489C913.08 219.973 912.488 217.764 913.043 215.694L922.637 179.885C923.192 177.814 924.81 176.197 926.88 175.642L962.689 166.047Z" fill="#451FAD"/>
</g>
<g opacity="0.4" filter="url(#filter5_f_17_394)">
<path d="M961.395 170.877C963.465 170.322 965.674 170.914 967.19 172.43L994.111 199.351C995.627 200.866 996.219 203.076 995.664 205.146L985.81 241.921C985.255 243.991 983.638 245.609 981.568 246.163L944.793 256.017C942.722 256.572 940.513 255.98 938.997 254.464L912.077 227.543C910.561 226.028 909.969 223.818 910.524 221.748L920.377 184.973C920.932 182.903 922.549 181.286 924.62 180.731L961.395 170.877Z" fill="#451FAD"/>
</g>
<path d="M964.759 158.32C966.83 157.765 969.039 158.357 970.555 159.873L999.597 188.915C1001.11 190.431 1001.7 192.64 1001.15 194.711L990.52 234.383C989.965 236.453 988.348 238.071 986.277 238.626L946.605 249.256C944.534 249.81 942.325 249.219 940.809 247.703L911.767 218.661C910.251 217.145 909.659 214.936 910.214 212.865L920.844 173.193C921.399 171.122 923.016 169.505 925.087 168.95L964.759 158.32Z" fill="url(#paint3_linear_17_394)"/>
<g clip-path="url(#clip2_17_394)">
<path d="M942.51 200.63L961.759 182.091L961.756 182.102L961.762 182.092L969.162 207.768L969.168 207.773L953.732 212.08L953.733 212.077L953.727 212.079L953.725 212.075L953.724 212.077L942.51 200.63Z" fill="white"/>
<path d="M950.129 225.498L950.126 225.507L941.832 203.159L953.048 214.602L953.047 214.606L953.051 214.603L968.494 210.303L950.129 225.508L950.129 225.498Z" fill="white"/>
</g>
</g>
<defs>
<filter id="filter0_f_17_394" x="894.955" y="-30.2817" width="192.21" height="192.21" filterUnits="userSpaceOnUse" color-interpolation-filters="sRGB">
<feFlood flood-opacity="0" result="BackgroundImageFix"/>
<feBlend mode="normal" in="SourceGraphic" in2="BackgroundImageFix" result="shape"/>
<feGaussianBlur stdDeviation="3" result="effect1_foregroundBlur_17_394"/>
</filter>
<filter id="filter1_f_17_394" x="886.542" y="-34.4521" width="212.142" height="212.142" filterUnits="userSpaceOnUse" color-interpolation-filters="sRGB">
<feFlood flood-opacity="0" result="BackgroundImageFix"/>
<feBlend mode="normal" in="SourceGraphic" in2="BackgroundImageFix" result="shape"/>
<feGaussianBlur stdDeviation="7.5" result="effect1_foregroundBlur_17_394"/>
</filter>
<filter id="filter2_f_17_394" x="1040.78" y="107.928" width="138.44" height="156.144" filterUnits="userSpaceOnUse" color-interpolation-filters="sRGB">
<feFlood flood-opacity="0" result="BackgroundImageFix"/>
<feBlend mode="normal" in="SourceGraphic" in2="BackgroundImageFix" result="shape"/>
<feGaussianBlur stdDeviation="3" result="effect1_foregroundBlur_17_394"/>
</filter>
<filter id="filter3_f_17_394" x="1030.91" y="103.928" width="158.172" height="176.144" filterUnits="userSpaceOnUse" color-interpolation-filters="sRGB">
<feFlood flood-opacity="0" result="BackgroundImageFix"/>
<feBlend mode="normal" in="SourceGraphic" in2="BackgroundImageFix" result="shape"/>
<feGaussianBlur stdDeviation="7.5" result="effect1_foregroundBlur_17_394"/>
</filter>
<filter id="filter4_f_17_394" x="906.838" y="159.843" width="95.6175" height="95.6174" filterUnits="userSpaceOnUse" color-interpolation-filters="sRGB">
<feFlood flood-opacity="0" result="BackgroundImageFix"/>
<feBlend mode="normal" in="SourceGraphic" in2="BackgroundImageFix" result="shape"/>
<feGaussianBlur stdDeviation="3" result="effect1_foregroundBlur_17_394"/>
</filter>
<filter id="filter5_f_17_394" x="895.319" y="155.672" width="115.549" height="115.549" filterUnits="userSpaceOnUse" color-interpolation-filters="sRGB">
<feFlood flood-opacity="0" result="BackgroundImageFix"/>
<feBlend mode="normal" in="SourceGraphic" in2="BackgroundImageFix" result="shape"/>
<feGaussianBlur stdDeviation="7.5" result="effect1_foregroundBlur_17_394"/>
</filter>
<linearGradient id="paint0_linear_17_394" x1="547.934" y1="-27.9259" x2="872.155" y2="530.948" gradientUnits="userSpaceOnUse">
<stop stop-color="#8D1CFE"/>
<stop offset="1" stop-color="#0038ED"/>
</linearGradient>
<linearGradient id="paint1_linear_17_394" x1="964.901" y1="-31.8047" x2="1015.15" y2="155.724" gradientUnits="userSpaceOnUse">
<stop stop-color="#F4BA45"/>
<stop offset="1" stop-color="#F19C3B"/>
</linearGradient>
<linearGradient id="paint2_linear_17_394" x1="1110" y1="105.928" x2="1110" y2="258.072" gradientUnits="userSpaceOnUse">
<stop stop-color="#F4BA45"/>
<stop offset="1" stop-color="#F19C3B"/>
</linearGradient>
<linearGradient id="paint3_linear_17_394" x1="967.865" y1="158.32" x2="943.499" y2="249.256" gradientUnits="userSpaceOnUse">
<stop stop-color="#9A7DE8"/>
<stop offset="1" stop-color="#7852E0"/>
</linearGradient>
<clipPath id="clip0_17_394">
<rect width="1200" height="290" rx="10" fill="white"/>
</clipPath>
<clipPath id="clip1_17_394">
<rect width="97.8735" height="97.8735" fill="white" transform="translate(929.935 27.2666) rotate(-15)"/>
</clipPath>
<clipPath id="clip2_17_394">
<rect width="47.9435" height="47.9435" fill="white" transform="translate(938.691 174.359) rotate(15)"/>
</clipPath>
</defs>
</svg>
