<svg width="135" height="24" viewBox="0 0 135 24" fill="none" xmlns="http://www.w3.org/2000/svg">
<path d="M27.116 6.70035C22.2353 6.70035 18.4217 10.4054 18.4217 15.3654C18.4217 20.3254 22.1389 23.9988 27.116 23.9988C32.0931 23.9988 35.875 20.262 35.875 15.3337C35.875 10.4371 32.1577 6.70035 27.116 6.70035ZM27.1489 20.4242C24.3695 20.4242 22.3328 18.2656 22.3328 15.3666C22.3328 12.4348 24.3366 10.2774 27.116 10.2774C29.9283 10.2774 31.9638 12.4677 31.9638 15.3666C31.9638 18.2656 29.9283 20.4242 27.1489 20.4242ZM36.9409 10.47H39.3652V23.678H43.2435V7.02233H36.9409V10.47ZM8.66141 10.2761C10.6981 10.2761 12.314 11.5323 12.9275 13.4007H17.0326C16.2886 9.40658 12.9921 6.70035 8.69434 6.70035C3.8136 6.70035 0 10.4054 0 15.3666C0 20.3279 3.71726 24 8.69434 24C12.8958 24 16.2569 21.2938 17.0008 17.2667H12.9275C12.3457 19.1351 10.7298 20.4242 8.69314 20.4242C5.88079 20.4242 3.90994 18.2656 3.90994 15.3666C3.91117 12.4348 5.8503 10.2761 8.66141 10.2761ZM110.63 13.7556L107.786 13.3373C106.429 13.1446 105.459 12.6933 105.459 11.6299C105.459 10.47 106.72 9.89074 108.432 9.89074C110.307 9.89074 111.503 10.6957 111.762 12.0165H115.511C115.09 8.66629 112.504 6.70155 108.53 6.70155C104.425 6.70155 101.71 8.79559 101.71 11.7591C101.71 14.5934 103.488 16.2374 107.075 16.7521L109.919 17.1704C111.309 17.3631 112.085 17.9119 112.085 18.9424C112.085 20.2632 110.728 20.8108 108.853 20.8108C106.558 20.8108 105.265 19.8766 105.071 18.4595H101.257C101.614 21.7133 104.166 24 108.82 24C113.055 24 115.866 22.067 115.866 18.7485C115.866 15.7849 113.83 14.2385 110.63 13.7556ZM41.3044 0.160984C39.8824 0.160984 38.8155 1.19152 38.8155 2.60867C38.8155 4.02581 39.8812 5.05635 41.3044 5.05635C42.7264 5.05635 43.7936 4.02581 43.7936 2.60867C43.7936 1.19152 42.7264 0.160984 41.3044 0.160984ZM98.2196 12.725C98.2196 9.11753 96.0221 6.70155 91.368 6.70155C86.9726 6.70155 84.5163 8.92485 84.0311 12.3396H87.8775C88.0714 11.0189 89.1056 9.92366 91.3035 9.92366C93.2756 9.92366 94.245 10.7932 94.245 11.8567C94.245 13.2422 92.4667 13.5958 90.2692 13.8215C87.2959 14.1434 83.6115 15.1739 83.6115 19.04C83.6115 22.0365 85.842 23.9683 89.3974 23.9683C92.1765 23.9683 93.9217 22.8085 94.7951 20.9718C94.9245 22.6146 96.1526 23.678 97.866 23.678H100.128V20.2315H98.2207V12.725H98.2196ZM94.4059 16.9131C94.4059 19.1363 92.4667 20.7791 90.1069 20.7791C88.6522 20.7791 87.4241 20.1669 87.4241 18.879C87.4241 17.2362 89.3959 16.785 91.206 16.5923C92.9512 16.4313 93.9206 16.0447 94.4059 15.3032V16.9131ZM73.8184 6.70035C71.6524 6.70035 69.8426 7.60283 68.55 9.11633V0H64.6717V23.678H68.4851V21.4877C69.7777 23.0658 71.6209 24 73.8184 24C78.4721 24 81.9956 20.3279 81.9956 15.3666C81.9956 10.4054 78.4076 6.70035 73.8184 6.70035ZM73.2367 20.4242C70.4572 20.4242 68.4206 18.2656 68.4206 15.3666C68.4206 12.4677 70.4891 10.2774 73.2682 10.2774C76.0807 10.2774 78.0514 12.436 78.0514 15.3666C78.0514 18.2656 76.0159 20.4242 73.2367 20.4242ZM55.3954 6.70035C52.8746 6.70035 51.2257 7.73089 50.2564 9.18094V7.02233H46.4096V23.6768H50.2879V14.6252C50.2879 12.0799 51.9037 10.2761 54.2955 10.2761C56.526 10.2761 57.915 11.8543 57.915 14.1422V23.678H61.7932V13.8531C61.7947 9.6639 59.6299 6.70035 55.3954 6.70035ZM134.353 14.8191C134.353 10.0517 130.863 6.70155 126.176 6.70155C121.199 6.70155 117.546 10.4383 117.546 15.3666C117.546 20.5535 121.457 24 126.241 24C130.281 24 133.448 21.6157 134.256 18.2339H130.215C129.633 19.7156 128.211 20.5535 126.304 20.5535C123.815 20.5535 121.94 19.0071 121.521 16.3008H134.352V14.8191H134.353ZM121.747 13.53C122.362 11.2103 124.107 10.0835 126.111 10.0835C128.309 10.0835 129.99 11.3396 130.377 13.53H121.747Z" fill="#0052FF"/>
</svg>
