<svg width="40" height="36" viewBox="0 0 40 36" fill="none" xmlns="http://www.w3.org/2000/svg">
<path d="M29.0276 0C35.92 0 39.9929 3.95724 39.9929 10.6757V10.7503H31.5236C27.5822 10.7572 24.3893 13.8703 24.3822 17.7131C24.3769 21.5646 27.5733 24.6916 31.5236 24.6968H40V25.3087C40 32.0272 35.9271 36 29.0347 36H10.9671C4.07289 36 0 32.0272 0 25.3087V10.6757C0 3.95724 4.07289 0 10.9671 0H29.0276ZM20.7662 7.74981H9.47911C8.64 7.75329 7.95911 8.41716 7.95554 9.23704C7.952 10.0604 8.63467 10.7312 9.47911 10.7347H20.7804C21.6249 10.7312 22.3076 10.0604 22.304 9.2353C22.3004 8.41196 21.6107 7.74635 20.7662 7.74981Z" fill="url(#paint0_linear_9_282)"/>
<path opacity="0.4" d="M28.0748 18.5934C28.4931 20.4958 30.161 21.8342 32.0652 21.7994H38.565C39.3573 21.7994 40 21.1432 40 20.3321V15.269C39.9983 14.4597 39.3573 13.8018 38.565 13.8H31.9122C29.7461 13.807 27.9966 15.6049 28 17.8206C28 18.0799 28.0255 18.3393 28.0748 18.5934Z" fill="url(#paint1_linear_9_282)"/>
<path d="M32 19.8C33.1046 19.8 34 18.9046 34 17.8C34 16.6955 33.1046 15.8 32 15.8C30.8954 15.8 30 16.6955 30 17.8C30 18.9046 30.8954 19.8 32 19.8Z" fill="url(#paint2_linear_9_282)"/>
<defs>
<linearGradient id="paint0_linear_9_282" x1="18.2645" y1="-3.46666" x2="53.6112" y2="12.8938" gradientUnits="userSpaceOnUse">
<stop stop-color="#8D1CFE"/>
<stop offset="1" stop-color="#0038ED"/>
</linearGradient>
<linearGradient id="paint1_linear_9_282" x1="33.4793" y1="13.0297" x2="42.7395" y2="18.816" gradientUnits="userSpaceOnUse">
<stop stop-color="#8D1CFE"/>
<stop offset="1" stop-color="#0038ED"/>
</linearGradient>
<linearGradient id="paint2_linear_9_282" x1="31.8264" y1="15.4149" x2="35.4837" y2="16.9384" gradientUnits="userSpaceOnUse">
<stop stop-color="#8D1CFE"/>
<stop offset="1" stop-color="#0038ED"/>
</linearGradient>
</defs>
</svg>
